<?xml version="1.0" encoding="UTF-8"?>
<svg viewBox="0 0 300 250" xmlns="http://www.w3.org/2000/svg">
  <!-- No background rectangle - making it transparent -->
  
  <!-- Base/Bottom part -->
  <rect x="75" y="205" width="150" height="10" rx="2" fill="#303030" />
  
  <!-- Main laptop body -->
  <rect x="60" y="80" width="180" height="125" rx="8" fill="#404040" />
  <rect x="66" y="86" width="168" height="113" rx="4" fill="#202020" />
  
  <!-- Screen -->
  <rect x="72" y="92" width="156" height="100" rx="2" fill="#1a1a1a" />
  <rect x="78" y="98" width="144" height="88" rx="2" fill="#0e65c9" />
  
  <!-- Keyboard area -->
  <rect x="66" y="178" width="168" height="15" rx="3" fill="#303030" />
  
  <!-- Touchpad -->
  <rect x="111" y="182" width="78" height="8" rx="2" fill="#252525" />
  
  <!-- Power button -->
  <circle cx="150" cy="182" r="1.5" fill="#444" />
  
  <!-- Logo on back (simplified) -->
  <circle cx="150" cy="123" r="6" fill="#505050" opacity="0.7" />
  
  <!-- Screen content (simplified code/website mockup) -->
  <rect x="87" y="105" width="96" height="3" rx="1" fill="#ffffff" opacity="0.7" />
  <rect x="87" y="112" width="84" height="3" rx="1" fill="#ffffff" opacity="0.6" />
  <rect x="87" y="119" width="108" height="3" rx="1" fill="#ffffff" opacity="0.7" />
  <rect x="87" y="126" width="72" height="3" rx="1" fill="#ffffff" opacity="0.6" />
  <rect x="87" y="133" width="96" height="3" rx="1" fill="#ffffff" opacity="0.7" />
  <rect x="87" y="140" width="84" height="3" rx="1" fill="#ffffff" opacity="0.6" />
  <rect x="87" y="147" width="60" height="3" rx="1" fill="#ffffff" opacity="0.7" />
  
  <!-- Keyboard keys (simplified) -->
  <rect x="78" y="182" width="27" height="4" rx="1" fill="#252525" />
  <rect x="192" y="182" width="27" height="4" rx="1" fill="#252525" />
</svg>