<?xml version="1.0" encoding="UTF-8"?>
<svg viewBox="0 0 300 250" xmlns="http://www.w3.org/2000/svg">
  <!-- No background rectangle - making it transparent -->
  
  <!-- Base/Bottom part - 30% larger -->
  <rect x="62" y="205" width="195" height="13" rx="2.6" fill="#e0e0e0" />
  
  <!-- Main laptop body - 30% larger -->
  <rect x="43" y="67" width="234" height="162.5" rx="10.4" fill="#ffffff" />
  <rect x="51" y="75" width="218.4" height="146.9" rx="5.2" fill="#f5f5f5" />
  
  <!-- Screen - 30% larger -->
  <rect x="58.6" y="82.6" width="202.8" height="130" rx="2.6" fill="#e8e8e8" />
  <rect x="66.4" y="90.4" width="187.2" height="114.4" rx="2.6" fill="#0e65c9" />
  
  <!-- Keyboard area - 30% larger -->
  <rect x="51" y="174.4" width="218.4" height="19.5" rx="3.9" fill="#f0f0f0" />
  
  <!-- Touchpad - 30% larger -->
  <rect x="109.3" y="179.6" width="101.4" height="10.4" rx="2.6" fill="#e0e0e0" />
  
  <!-- Power button - 30% larger -->
  <circle cx="150" cy="179.6" r="1.95" fill="#d0d0d0" />
  
  <!-- Logo on back (simplified) - 30% larger -->
  <circle cx="150" cy="122.9" r="7.8" fill="#e0e0e0" opacity="0.7" />
  
  <!-- Screen content (simplified code/website mockup) - 30% larger -->
  <rect x="77.1" y="99.5" width="124.8" height="3.9" rx="1.3" fill="#ffffff" opacity="0.7" />
  <rect x="77.1" y="108.6" width="109.2" height="3.9" rx="1.3" fill="#ffffff" opacity="0.6" />
  <rect x="77.1" y="117.7" width="140.4" height="3.9" rx="1.3" fill="#ffffff" opacity="0.7" />
  <rect x="77.1" y="126.8" width="93.6" height="3.9" rx="1.3" fill="#ffffff" opacity="0.6" />
  <rect x="77.1" y="135.9" width="124.8" height="3.9" rx="1.3" fill="#ffffff" opacity="0.7" />
  <rect x="77.1" y="145" width="109.2" height="3.9" rx="1.3" fill="#ffffff" opacity="0.6" />
  <rect x="77.1" y="154.1" width="78" height="3.9" rx="1.3" fill="#ffffff" opacity="0.7" />
  
  <!-- Keyboard keys (simplified) - 30% larger -->
  <rect x="66.4" y="179.6" width="35.1" height="5.2" rx="1.3" fill="#e5e5e5" />
  <rect x="199.6" y="179.6" width="35.1" height="5.2" rx="1.3" fill="#e5e5e5" />
  
  <!-- Add subtle shadow/outline for definition against dark backgrounds -->
  <rect x="43" y="67" width="234" height="162.5" rx="10.4" fill="none" stroke="#d0d0d0" stroke-width="1" />
</svg>